<?xml version="1.0" encoding="UTF-8" standalone="no"?>
<!-- Created with Inkscape (http://www.inkscape.org/) -->

<svg
   xmlns:dc="http://purl.org/dc/elements/1.1/"
   xmlns:cc="http://creativecommons.org/ns#"
   xmlns:rdf="http://www.w3.org/1999/02/22-rdf-syntax-ns#"
   xmlns:svg="http://www.w3.org/2000/svg"
   xmlns="http://www.w3.org/2000/svg"
   xmlns:sodipodi="http://sodipodi.sourceforge.net/DTD/sodipodi-0.dtd"
   xmlns:inkscape="http://www.inkscape.org/namespaces/inkscape"
   width="425.7869"
   height="136.6875"
   id="svg2985"
   version="1.1"
   inkscape:version="0.48.4 r9939"
   sodipodi:docname="afluentes1.svg">
  <defs
     id="defs3">
    <filter
       id="filter4088"
       inkscape:label="Drop Shadow"
       color-interpolation-filters="sRGB">
      <feFlood
         id="feFlood4090"
         flood-opacity="0.5"
         flood-color="rgb(0,0,0)"
         result="flood" />
      <feComposite
         id="feComposite4092"
         in2="SourceGraphic"
         in="flood"
         operator="in"
         result="composite1" />
      <feGaussianBlur
         id="feGaussianBlur4094"
         stdDeviation="2"
         result="blur" />
      <feOffset
         id="feOffset4096"
         dx="4"
         dy="4"
         result="offset" />
      <feComposite
         id="feComposite4098"
         in2="offset"
         in="SourceGraphic"
         operator="over"
         result="fbSourceGraphic" />
      <feColorMatrix
         result="fbSourceGraphicAlpha"
         in="fbSourceGraphic"
         values="0 0 0 -1 0 0 0 0 -1 0 0 0 0 -1 0 0 0 0 1 0"
         id="feColorMatrix4100" />
      <feFlood
         id="feFlood4102"
         flood-opacity="0.5"
         flood-color="rgb(0,0,0)"
         result="flood"
         in="fbSourceGraphic" />
      <feComposite
         id="feComposite4104"
         in2="fbSourceGraphic"
         in="flood"
         operator="in"
         result="composite1" />
      <feGaussianBlur
         id="feGaussianBlur4106"
         stdDeviation="2"
         result="blur" />
      <feOffset
         id="feOffset4108"
         dx="4"
         dy="4"
         result="offset" />
      <feComposite
         id="feComposite4110"
         in2="offset"
         in="fbSourceGraphic"
         operator="over"
         result="composite2" />
    </filter>
    <filter
       id="filter4112"
       inkscape:label="Drop Shadow"
       color-interpolation-filters="sRGB">
      <feFlood
         id="feFlood4114"
         flood-opacity="0.25"
         flood-color="rgb(0,0,0)"
         result="flood" />
      <feComposite
         id="feComposite4116"
         in2="SourceGraphic"
         in="flood"
         operator="in"
         result="composite1" />
      <feGaussianBlur
         id="feGaussianBlur4118"
         stdDeviation="10"
         result="blur" />
      <feOffset
         id="feOffset4120"
         dx="10"
         dy="10"
         result="offset" />
      <feComposite
         id="feComposite4122"
         in2="offset"
         in="SourceGraphic"
         operator="over"
         result="composite2" />
    </filter>
  </defs>
  <sodipodi:namedview
     inkscape:document-units="mm"
     id="base"
     pagecolor="#ffffff"
     bordercolor="#666666"
     borderopacity="1.0"
     inkscape:pageopacity="0.0"
     inkscape:pageshadow="2"
     inkscape:zoom="1.4"
     inkscape:cx="-27.260635"
     inkscape:cy="5.3692528"
     inkscape:current-layer="layer1"
     showgrid="false"
     units="mm"
     showguides="true"
     inkscape:guide-bbox="true"
     inkscape:window-width="1871"
     inkscape:window-height="1056"
     inkscape:window-x="49"
     inkscape:window-y="24"
     inkscape:window-maximized="1"
     fit-margin-top="0"
     fit-margin-left="0"
     fit-margin-right="0"
     fit-margin-bottom="0" />
  <metadata
     id="metadata4">
    <rdf:RDF>
      <cc:Work
         rdf:about="">
        <dc:format>image/svg+xml</dc:format>
        <dc:type
           rdf:resource="http://purl.org/dc/dcmitype/StillImage" />
        <dc:title></dc:title>
      </cc:Work>
    </rdf:RDF>
  </metadata>
  <g
     inkscape:label="Layer 1"
     inkscape:groupmode="layer"
     id="layer1"
     transform="translate(-96.094189,-648.9375)">
    <g
       style="font-size:200px;font-style:normal;font-variant:normal;font-weight:normal;font-stretch:normal;text-align:start;line-height:125%;letter-spacing:0px;word-spacing:0px;writing-mode:lr-tb;text-anchor:start;fill:#194759;fill-opacity:1;stroke:none;font-family:Ubuntu;-inkscape-font-specification:Ubuntu"
       id="text4263">
      <path
         d="m 117.39419,747.56495 c 2.19997,1e-5 4.1333,-0.0333 5.8,-0.1 1.7333,-0.13332 3.16663,-0.33332 4.3,-0.6 l 0,-15.5 c -0.6667,-0.33331 -1.7667,-0.59997 -3.3,-0.8 -1.4667,-0.26664 -3.2667,-0.39997 -5.4,-0.4 -1.40003,3e-5 -2.90002,0.10003 -4.5,0.3 -1.53335,0.20003 -2.96669,0.63336 -4.3,1.3 -1.26668,0.60003 -2.33335,1.46669 -3.2,2.6 -0.86668,1.06669 -1.30001,2.50002 -1.3,4.3 -1e-5,3.33335 1.06665,5.66668 3.2,7 2.13331,1.26668 5.03331,1.90001 8.7,1.9 m -0.8,-46.6 c 3.7333,6e-5 6.86663,0.50006 9.4,1.5 2.59996,0.93339 4.66663,2.30005 6.2,4.1 1.59996,1.73338 2.73329,3.83338 3.4,6.3 0.66662,2.40004 0.99995,5.06671 1,8 l 0,32.5 c -0.80004,0.13334 -1.93338,0.33334 -3.4,0.6 -1.40004,0.2 -3.00004,0.4 -4.8,0.6 -1.80004,0.2 -3.7667,0.36667 -5.9,0.5 -2.0667,0.2 -4.13336,0.3 -6.2,0.3 -2.93336,0 -5.63335,-0.3 -8.1,-0.9 -2.46668,-0.6 -4.60001,-1.53333 -6.4,-2.8 -1.800009,-1.33333 -3.200007,-3.06666 -4.200001,-5.2 -1.000004,-2.13332 -1.500004,-4.69998 -1.5,-7.7 -4e-6,-2.86664 0.566662,-5.33331 1.7,-7.4 1.199993,-2.06664 2.799991,-3.7333 4.800001,-5 1.99999,-1.26663 4.33332,-2.19997 7,-2.8 2.66665,-0.59997 5.46664,-0.89996 8.4,-0.9 0.93331,4e-5 1.89997,0.0667 2.9,0.2 0.99997,0.0667 1.9333,0.20003 2.8,0.4 0.9333,0.13337 1.7333,0.2667 2.4,0.4 0.66663,0.13337 1.1333,0.23337 1.4,0.3 l 0,-2.6 c -4e-5,-1.5333 -0.1667,-3.03329 -0.5,-4.5 -0.33337,-1.53329 -0.93337,-2.86662 -1.8,-4 -0.8667,-1.19995 -2.0667,-2.13329 -3.6,-2.8 -1.4667,-0.73328 -3.40003,-1.09995 -5.8,-1.1 -3.06669,5e-5 -5.76669,0.23338 -8.1,0.7 -2.26668,0.40005 -3.96668,0.83338 -5.1,1.3 l -1.1,-7.7 c 1.19999,-0.53328 3.19999,-1.03328 6,-1.5 2.79998,-0.53328 5.83331,-0.79994 9.1,-0.8"
         style="line-height:125%;letter-spacing:-3px;fill:#194759;fill-opacity:1;font-family:Ubuntu;-inkscape-font-specification:Ubuntu"
         id="path4070"
         inkscape:connector-curvature="0" />
      <path
         d="m 192.84263,662.16495 c -5e-5,-1.2999 0.39994,-2.5999 1.2,-3.9 0.79994,-1.3999 1.19994,-2.1999 1.2,-2.4 -6e-5,-1.2999 -0.85006,-1.9499 -2.55,-1.95 -5.30005,10e-5 -9.85004,7.4501 -13.65,22.35 l -2.7,10.65 13.8,0 -1.35,6.3 -13.5,0 c -6.20003,28.70004 -10.50003,47.05002 -12.9,55.05 -5.30002,17.69999 -11.90001,28.89998 -19.8,33.6 -3.6,2.09997 -7.65,3.14997 -12.15,3.15 -4.49999,-3e-5 -8.09998,-1.10003 -10.8,-3.3 -2.69998,-2.10002 -4.04998,-4.95002 -4.05,-8.55 2e-5,-2.20001 0.80002,-4.10001 2.4,-5.7 1.50002,-1.60001 3.30002,-2.40001 5.4,-2.4 1.90001,-10e-6 3.60001,0.74999 5.1,2.25 1.50001,1.49999 2.25001,3.14999 2.25,4.95 1e-5,1.39998 -0.39999,2.74998 -1.2,4.05 -0.79999,1.29998 -1.19999,2.09998 -1.2,2.4 10e-6,1.09998 0.90001,1.64998 2.7,1.65 3.6,-2e-5 6.35,-2.70002 8.25,-8.1 1.8,-5.30001 5.14999,-19.1 10.05,-41.4 3.29999,-15.09996 6.09998,-27.64995 8.4,-37.65 l -10.95,0 1.35,-6.3 10.95,0 c 1.49998,-5.39992 3.09998,-10.04992 4.8,-13.95 1.69997,-3.89991 3.84997,-7.74991 6.45,-11.55 2.59996,-3.8999 5.79996,-6.8499 9.6,-8.85 3.79995,-1.99989 8.14995,-2.99989 13.05,-3 4.49994,1.1e-4 8.09994,1.10011 10.8,3.3 2.69993,2.1001 4.04993,5.0001 4.05,8.7 -7e-5,2.30009 -0.75007,4.20009 -2.25,5.7 -1.40007,1.50009 -3.20006,2.25009 -5.4,2.25 -2.00006,9e-5 -3.75006,-0.69991 -5.25,-2.1 -1.40006,-1.49991 -2.10005,-3.24991 -2.1,-5.25"
         style="font-size:150px;line-height:125%;letter-spacing:-3px;fill:#0c2433;fill-opacity:1;stroke:#194759;stroke-width:1.25;stroke-miterlimit:4;stroke-opacity:1;stroke-dasharray:none;font-family:Ubuntu;-inkscape-font-specification:Ubuntu"
         id="path4072"
         inkscape:connector-curvature="0" />
      <path
         d="m 211.64028,755.26495 c -5.73335,-0.13333 -9.80001,-1.36666 -12.2,-3.7 -2.40001,-2.33332 -3.6,-5.96665 -3.6,-10.9 l 0,-62.4 9.3,-1.6 0,62.5 c -1e-5,1.53335 0.13332,2.80002 0.4,3.8 0.26665,1.00001 0.69999,1.80001 1.3,2.4 0.59998,0.60001 1.39998,1.06668 2.4,1.4 0.99998,0.26668 2.23331,0.50001 3.7,0.7 l -1.3,7.8"
         style="font-size:100px;line-height:125%;font-family:Ubuntu;-inkscape-font-specification:Ubuntu"
         id="path4074"
         inkscape:connector-curvature="0" />
      <path
         d="m 264.78403,752.76495 c -2.13338,0.53334 -4.96671,1.1 -8.5,1.7 -3.4667,0.6 -7.50003,0.9 -12.1,0.9 -4.00002,0 -7.36668,-0.56666 -10.1,-1.7 -2.73335,-1.19999 -4.93334,-2.86666 -6.6,-5 -1.66667,-2.13332 -2.86667,-4.63332 -3.6,-7.5 -0.73334,-2.93331 -1.1,-6.16664 -1.1,-9.7 l 0,-29.2 9.3,0 0,27.2 c -1e-5,6.33336 0.99999,10.86668 3,13.6 1.99998,2.73335 5.36664,4.10001 10.1,4.1 0.99997,10e-6 2.0333,-0.0333 3.1,-0.1 1.06664,-0.0667 2.06663,-0.13332 3,-0.2 0.9333,-0.13332 1.76663,-0.23332 2.5,-0.3 0.79996,-0.13332 1.36663,-0.26666 1.7,-0.4 l 0,-43.9 9.3,0 0,50.5"
         style="font-size:100px;line-height:125%;font-family:Ubuntu;-inkscape-font-specification:Ubuntu"
         id="path4076"
         inkscape:connector-curvature="0" />
      <path
         d="m 277.90591,728.36495 c -1e-5,-4.59997 0.66666,-8.59996 2,-12 1.33332,-3.46662 3.09999,-6.33329 5.3,-8.6 2.19998,-2.26661 4.73331,-3.96661 7.6,-5.1 2.86664,-1.13328 5.79997,-1.69994 8.8,-1.7 6.99996,6e-5 12.36662,2.20005 16.1,6.6 3.73328,4.33338 5.59995,10.96671 5.6,19.9 -5e-5,0.40003 -5e-5,0.93336 0,1.6 -5e-5,0.60003 -0.0334,1.16669 -0.1,1.7 l -35.6,0 c 0.39998,5.40002 1.96665,9.50002 4.7,12.3 2.73331,2.80001 6.99997,4.20001 12.8,4.2 3.26663,10e-6 5.99996,-0.26666 8.2,-0.8 2.26662,-0.59999 3.96662,-1.16665 5.1,-1.7 l 1.3,7.8 c -1.13338,0.6 -3.13338,1.23334 -6,1.9 -2.80004,0.66667 -6.00004,1 -9.6,1 -4.53336,0 -8.46669,-0.66666 -11.8,-2 -3.26668,-1.39999 -5.96668,-3.29999 -8.1,-5.7 -2.13334,-2.39999 -3.73334,-5.23332 -4.8,-8.5 -1.00001,-3.33331 -1.50001,-6.96664 -1.5,-10.9 m 35.7,-5.1 c 0.0666,-4.19996 -1.00004,-7.63329 -3.2,-10.3 -2.13337,-2.73329 -5.10003,-4.09995 -8.9,-4.1 -2.13336,5e-5 -4.03336,0.43338 -5.7,1.3 -1.60002,0.80005 -2.96669,1.86671 -4.1,3.2 -1.13335,1.33338 -2.03335,2.86671 -2.7,4.6 -0.60002,1.73337 -1.00002,3.50004 -1.2,5.3 l 25.8,0"
         style="font-size:100px;line-height:125%;font-family:Ubuntu;-inkscape-font-specification:Ubuntu"
         id="path4078"
         inkscape:connector-curvature="0" />
      <path
         d="m 336.66528,703.76495 c 2.13333,-0.53328 4.96666,-1.09994 8.5,-1.7 3.53332,-0.59994 7.59998,-0.89994 12.2,-0.9 4.1333,6e-5 7.56663,0.60006 10.3,1.8 2.73329,1.13339 4.89996,2.76672 6.5,4.9 1.66662,2.06671 2.83329,4.56671 3.5,7.5 0.66662,2.93337 0.99995,6.1667 1,9.7 l 0,29.2 -9.3,0 0,-27.2 c -4e-5,-3.19997 -0.23337,-5.9333 -0.7,-8.2 -0.40004,-2.26663 -1.10004,-4.09996 -2.1,-5.5 -1.00003,-1.39995 -2.33337,-2.39995 -4,-3 -1.6667,-0.66662 -3.73336,-0.99995 -6.2,-1 -1.00002,5e-5 -2.03336,0.0334 -3.1,0.1 -1.06669,0.0667 -2.10002,0.16671 -3.1,0.3 -0.93335,0.0667 -1.80002,0.16671 -2.6,0.3 -0.73335,0.13338 -1.26668,0.23338 -1.6,0.3 l 0,43.9 -9.3,0 0,-50.5"
         style="font-size:100px;line-height:125%;font-family:Ubuntu;-inkscape-font-specification:Ubuntu"
         id="path4080"
         inkscape:connector-curvature="0" />
      <path
         d="m 402.78716,702.26495 19.7,0 0,7.8 -19.7,0 0,24 c -2e-5,2.60002 0.19998,4.76669 0.6,6.5 0.39998,1.66668 0.99998,3.00001 1.8,4 0.79998,0.93335 1.79998,1.60001 3,2 1.19997,0.40001 2.59997,0.60001 4.2,0.6 2.79997,10e-6 5.0333,-0.29999 6.7,-0.9 1.7333,-0.66665 2.9333,-1.13332 3.6,-1.4 l 1.8,7.7 c -0.93337,0.46667 -2.5667,1.03334 -4.9,1.7 -2.33337,0.73334 -5.00003,1.1 -8,1.1 -3.53336,0 -6.46669,-0.43333 -8.8,-1.3 -2.26668,-0.93333 -4.10001,-2.29999 -5.5,-4.1 -1.40001,-1.79999 -2.40001,-3.99999 -3,-6.6 -0.53334,-2.66665 -0.80001,-5.73331 -0.8,-9.2 l 0,-46.4 9.3,-1.6 0,16.1"
         style="font-size:100px;line-height:125%;font-family:Ubuntu;-inkscape-font-specification:Ubuntu"
         id="path4082"
         inkscape:connector-curvature="0" />
      <path
         d="m 430.42172,728.36495 c -10e-6,-4.59997 0.66666,-8.59996 2,-12 1.33332,-3.46662 3.09999,-6.33329 5.3,-8.6 2.19998,-2.26661 4.73331,-3.96661 7.6,-5.1 2.86664,-1.13328 5.79997,-1.69994 8.8,-1.7 6.99996,6e-5 12.36662,2.20005 16.1,6.6 3.73328,4.33338 5.59995,10.96671 5.6,19.9 -5e-5,0.40003 -5e-5,0.93336 0,1.6 -5e-5,0.60003 -0.0334,1.16669 -0.1,1.7 l -35.6,0 c 0.39998,5.40002 1.96665,9.50002 4.7,12.3 2.73331,2.80001 6.99997,4.20001 12.8,4.2 3.26663,10e-6 5.99996,-0.26666 8.2,-0.8 2.26662,-0.59999 3.96662,-1.16665 5.1,-1.7 l 1.3,7.8 c -1.13338,0.6 -3.13338,1.23334 -6,1.9 -2.80004,0.66667 -6.00004,1 -9.6,1 -4.53336,0 -8.46669,-0.66666 -11.8,-2 -3.26669,-1.39999 -5.96668,-3.29999 -8.1,-5.7 -2.13335,-2.39999 -3.73334,-5.23332 -4.8,-8.5 -1.00001,-3.33331 -1.50001,-6.96664 -1.5,-10.9 m 35.7,-5.1 c 0.0666,-4.19996 -1.00004,-7.63329 -3.2,-10.3 -2.13337,-2.73329 -5.10004,-4.09995 -8.9,-4.1 -2.13336,5e-5 -4.03336,0.43338 -5.7,1.3 -1.60003,0.80005 -2.96669,1.86671 -4.1,3.2 -1.13335,1.33338 -2.03335,2.86671 -2.7,4.6 -0.60002,1.73337 -1.00002,3.50004 -1.2,5.3 l 25.8,0"
         style="font-size:100px;line-height:125%;font-family:Ubuntu;-inkscape-font-specification:Ubuntu"
         id="path4084"
         inkscape:connector-curvature="0" />
      <path
         d="m 501.28109,747.56495 c 3.79998,1e-5 6.59997,-0.49999 8.4,-1.5 1.86664,-0.99999 2.79997,-2.59999 2.8,-4.8 -3e-5,-2.26665 -0.90003,-4.06665 -2.7,-5.4 -1.80003,-1.33331 -4.76669,-2.83331 -8.9,-4.5 -2.00002,-0.79997 -3.93335,-1.59997 -5.8,-2.4 -1.80001,-0.86664 -3.36668,-1.86664 -4.7,-3 -1.33334,-1.1333 -2.40001,-2.49997 -3.2,-4.1 -0.8,-1.59996 -1.2,-3.56663 -1.2,-5.9 0,-4.59995 1.69999,-8.23328 5.1,-10.9 3.39999,-2.73328 8.03332,-4.09994 13.9,-4.1 1.46664,6e-5 2.93331,0.10006 4.4,0.3 1.46664,0.13339 2.8333,0.33339 4.1,0.6 1.26663,0.20006 2.36663,0.43339 3.3,0.7 0.99996,0.26672 1.76663,0.50005 2.3,0.7 l -1.7,8 c -1.00003,-0.53329 -2.5667,-1.06662 -4.7,-1.6 -2.13336,-0.59995 -4.70003,-0.89995 -7.7,-0.9 -2.60002,5e-5 -4.86668,0.53338 -6.8,1.6 -1.93335,1.00005 -2.90001,2.60004 -2.9,4.8 -1e-5,1.13337 0.19999,2.13337 0.6,3 0.46665,0.86671 1.13332,1.6667 2,2.4 0.93332,0.6667 2.06665,1.30004 3.4,1.9 1.33331,0.60003 2.93331,1.23337 4.8,1.9 2.46664,0.93337 4.66664,1.8667 6.6,2.8 1.9333,0.8667 3.56663,1.90003 4.9,3.1 1.39996,1.20003 2.46663,2.66669 3.2,4.4 0.73329,1.66669 1.09996,3.73335 1.1,6.2 -4e-5,4.80001 -1.80004,8.43334 -5.4,10.9 -3.53336,2.46667 -8.60003,3.7 -15.2,3.7 -4.60001,0 -8.20001,-0.4 -10.8,-1.2 -2.60001,-0.73333 -4.36667,-1.3 -5.3,-1.7 l 1.7,-8 c 1.06666,0.40001 2.76666,1.00001 5.1,1.8 2.33332,0.80001 5.43332,1.20001 9.3,1.2"
         style="font-size:100px;line-height:125%;font-family:Ubuntu;-inkscape-font-specification:Ubuntu"
         id="path4086"
         inkscape:connector-curvature="0" />
    </g>
    <rect
       style="fill:#0f2d40;fill-opacity:1;stroke:none"
       id="rect4279"
       width="0.0035433071"
       height="135.46063"
       x="96.094193"
       y="649.55432" />
  </g>
</svg>
